/* XPM */
static char *_1559a57066e43bbb11d596eabe15d20ESkBNzXCxicpNK1s[] = {
/* columns rows colors chars-per-pixel */
"31 32 238 2 ",
"   c black",
".  c #F7CE28",
"X  c #F6CD27",
"o  c #F7CE27",
"O  c #F7CE28",
"+  c #F7CE28",
"@  c #F7CE28",
"#  c #F7CE28",
"$  c #F7CE28",
"%  c #F6CD27",
"&  c #F7CE28",
"*  c #F7CE28",
"=  c #F7CE28",
"-  c #F7CE28",
";  c #F7CE28",
":  c #F7CE28",
">  c None",
",  c #F7CE28",
"<  c #F7CE28",
"1  c #F7CE28",
"2  c #F7CE28",
"3  c #F7CF28",
"4  c #F7CE28",
"5  c #F7CE28",
"6  c #F7CE28",
"7  c #F7CF28",
"8  c #F8CE27",
"9  c #F7CE28",
"0  c #F7CE28",
"q  c #F7CE27",
"w  c #FACE26",
"e  c #F8CE26",
"r  c #F7CE28",
"t  c #F3CA26",
"y  c #E7BF20",
"u  c #DBB41A",
"i  c #D4AE17",
"p  c #D7B118",
"a  c #E5BE20",
"s  c #EFC724",
"d  c #F7CE27",
"f  c #F8CF27",
"g  c #F7CE28",
"h  c #D6B017",
"j  c #C29D09",
"k  c #C19B02",
"l  c #C29C00",
"z  c #C49E00",
"x  c #C39D00",
"c  c #C19C07",
"v  c #CFA913",
"b  c #ECC423",
"n  c #F7CE27",
"m  c #F7CE29",
"M  c #F7CE28",
"N  c #EBC322",
"B  c #C9A40F",
"V  c #BE9901",
"C  c #CBA400",
"Z  c #CCA500",
"A  c #C29D0A",
"S  c #F7CE28",
"D  c #F7CE29",
"F  c #F7CE28",
"G  c #C19C05",
"H  c #CAA300",
"J  c #CDA602",
"K  c #DFB80D",
"L  c #D2AB05",
"P  c #C19C04",
"I  c #E7C020",
"U  c #F7CE28",
"Y  c #F7CE28",
"T  c #F1C825",
"R  c #D0AA12",
"E  c #C9A300",
"W  c #CDA702",
"Q  c #DAB511",
"!  c #EFC40C",
"~  c #E2BB13",
"^  c #CFA906",
"/  c #CDA70D",
"(  c #EEC624",
")  c #FACE26",
"_  c #F7CD28",
"`  c #F7CE28",
"'  c #DDB619",
"]  c #C6A001",
"[  c #D9B414",
"{  c #F1CB20",
"}  c #F0C409",
"|  c #F1C815",
" . c #E2C022",
".. c #C8A101",
"X. c #D2AC12",
"o. c #F7CD28",
"O. c #F7CE28",
"+. c #CDA709",
"@. c #DAB81D",
"#. c #F0CD2A",
"$. c #F0C40A",
"%. c #F3CD23",
"&. c #DDBB20",
"*. c #D0AA07",
"=. c #C49E01",
"-. c #F0C825",
";. c #F7CE28",
":. c #F7CE28",
">. c #EBC320",
",. c #CBA402",
"<. c #CCA601",
"1. c #D1AB07",
"2. c #DBB615",
"3. c #F2D136",
"4. c #F3CC1E",
"5. c #F1C60F",
"6. c #F1CC23",
"7. c #E0BB18",
"8. c #CDA601",
"9. c #E1B91A",
"0. c #F7CE27",
"q. c #F7CE28",
"w. c #DFB717",
"e. c #C7A106",
"r. c #E1B90F",
"t. c #F1C711",
"y. c #F0C50B",
"u. c #EBC00B",
"i. c #C49D03",
"p. c #D7B010",
"a. c #F7CE28",
"s. c #F7CE28",
"d. c #DAB211",
"f. c #C19B00",
"g. c #CAA304",
"h. c #EFC309",
"j. c #D6AD06",
"k. c #B99400",
"l. c #D5AD0B",
"z. c #F1C824",
"x. c #F7CE28",
"c. c #DCB40F",
"v. c #CEA605",
"b. c #DCB207",
"n. c #B89301",
"m. c #D7AF0A",
"M. c #F2C923",
"N. c #CAA400",
"B. c #BA9501",
"V. c #DDB307",
"C. c #E5BA08",
"Z. c #B89202",
"A. c #C8A200",
"S. c #F7CE28",
"D. c #F7CE28",
"F. c #E0B813",
"G. c #CAA203",
"H. c #D6AD05",
"J. c #C59F00",
"K. c #DAB30D",
"L. c #F3CB25",
"P. c #F7CE28",
"I. c #F6CE27",
"U. c #F7CE28",
"Y. c #E8C01A",
"T. c #CDA503",
"R. c #D7AE05",
"E. c #DFB812",
"W. c #F6CD27",
"Q. c #F6CE27",
"!. c #F1C823",
"~. c #D1AA05",
"^. c #ECC41E",
"/. c #F7CD28",
"(. c #F7CE28",
"). c #D9B10C",
"_. c #EDC209",
"`. c #DDB308",
"'. c #C29D05",
"]. c #D4AC07",
"[. c #EABF09",
"{. c #D1A904",
"}. c #F5CC26",
"|. c #F7CD28",
" X c #F7CE28",
".X c #EBC21D",
"XX c #CFA803",
"oX c #E0B608",
"OX c #A58303",
"+X c #A98701",
"@X c #BE9900",
"#X c #B08D00",
"$X c #9D7C02",
"%X c #D6AE07",
"&X c #CEA702",
"*X c #E3BB16",
"=X c #F7CE28",
"-X c #E6BE19",
";X c #B08C01",
":X c #A98600",
">X c #AD8A00",
",X c #A98601",
"<X c #C9A200",
"1X c #E0B913",
"2X c #F7CE28",
"3X c #DDB510",
"4X c #F5CD27",
"5X c #F7CE28",
"6X c #FACE26",
"7X c #F7CE28",
"8X c #EAC21C",
"9X c #E2BA15",
"0X c #F7CE28",
"qX c #F7CE26",
"wX c #F7CE28",
"eX c #F4CB25",
"rX c #E1B914",
"tX c #DBB30E",
"yX c #F7CE28",
"uX c #F7CE27",
"iX c #FFCC22",
"pX c #F7CD28",
"aX c #F0C721",
"sX c #EEC620",
"dX c #F7CD28",
"fX c #F7CE28",
"gX c #F7CE28",
"hX c #F8CE28",
"jX c #F7CE28",
"kX c #F8CE28",
"lX c #F9CF27",
"zX c #F6CD27",
"xX c #F7CE28",
"cX c #F7CE28",
"vX c #F7CE28",
"bX c #F7CE28",
"nX c #F6CD27",
"mX c #F9CF27",
/* pixels */
"                . X o O + @ @ @ @ # $ % &                     ",
"            . * = - ; : : : : : : : > , < 1 2                 ",
"          3 4 5 : : : : : : : : : : : : : 6 # 7               ",
"        8 9 : : : : : : : : : : : : : : : : : 0 q w           ",
"      e r : : : : : t y u i i i p a s : : : : : 0 d           ",
"    f g : : : : s h j k l z z z x k c v b : : : : @ n         ",
"  m M : : : : N B V C Z Z Z Z Z Z Z Z l A N : : : : S D       ",
"  F 5 : : : s G H Z Z Z Z J K L Z Z Z Z C P I : : : : U       ",
"w Y : : : T R E Z Z Z Z W Q ! ~ ^ Z Z Z Z H / ( : : : 9 )     ",
"_ ` : : : ' ] Z Z Z Z Z [ { } |  .Z Z Z Z Z ..X.: : : : o.    ",
"O.; : : t +.Z Z Z Z J @.#.} } $.%.&.*.Z Z Z Z =.-.: : : ;..   ",
":.: : : >.,.Z <.1.2.3.4.$.} } } } 5.6.7.L 8.Z Z 9.: : : @ 0.  ",
"q.: : : w.C Z e.r.t.$.} } } } } } } } y.u.i.C Z p.t : : a.s.  ",
": : : : d.Z Z f.g.h.} } } } } } } } } } j.k.Z Z l.z.: : : x.  ",
": : : : c.Z Z Z l v.} } } } } } } } } b.n.Z Z Z m.M.: : : x.  ",
"; : : : c.Z Z Z N.B.V.} } } } } } } C.Z.A.Z Z Z m.M.: : > S.  ",
"D.: : : F.Z Z Z Z C G.} } } } } } } H.J.Z Z Z Z K.L.: : P.I.  ",
"U.: : : Y.Z Z Z Z Z T.} } } } } } } R.A.Z Z Z Z E.W.: : q.Q.  ",
"O.; : : !.~.Z Z Z Z T.} } } } } } } R.A.Z Z Z Z ^.: : : ;..   ",
"/.(.: : W.).Z Z Z Z T.} _.`.'.].[.} R.A.Z Z Z {.}.: : : |.    ",
".  X: : : .XXXZ Z Z T.oXOX+X@X#X$X%XH.A.Z Z &X*X: : : r =X    ",
"  F 5 : : W.-XZ Z Z ;X:Xz Z Z Z E >X,X<XZ Z 1XW.: : : U       ",
"  ) 2X: : : : F.XXZ Z Z Z Z Z Z Z Z Z Z Z 3X4X: : : 5X6X      ",
"    f 7X: : : W.8Xm.&XZ Z Z Z Z Z Z Z {.9X4X: : : - 0X        ",
"      qXwX: : : : eXrX~.Z Z Z Z Z XXtX.X: : : : yXuXiX        ",
"        pX# : : : : : : aX^.^.^.sXW.: : : : : wXdX            ",
"          fX4 5 : : : : : : : : : : : : : 6 < gX              ",
"            m hXjX: : : : : : : : : : : 0 kX&                 ",
"                lXzXxXcX5 : : : : vXbXnXmX                    ",
"                                                              ",
"                                                              ",
"                                                              "
};
